<svg width="159" height="30" viewBox="0 0 159 30" fill="none" xmlns="http://www.w3.org/2000/svg">
<mask id="path-1-outside-1_4_3" maskUnits="userSpaceOnUse" x="0" y="0" width="159" height="30" fill="black">
<rect fill="white" width="159" height="30"/>
<path d="M20.0256 10.0142H15.054C14.9877 9.50379 14.8518 9.04309 14.6463 8.6321C14.4408 8.22112 14.169 7.86979 13.831 7.57812C13.4929 7.28646 13.0919 7.06439 12.6278 6.91193C12.1705 6.75284 11.6634 6.67329 11.1065 6.67329C10.1188 6.67329 9.26705 6.91525 8.55114 7.39915C7.84186 7.88305 7.29498 8.58239 6.91051 9.49716C6.53267 10.4119 6.34375 11.5189 6.34375 12.8182C6.34375 14.1705 6.53598 15.304 6.92045 16.2188C7.31155 17.1269 7.85843 17.813 8.56108 18.277C9.27036 18.7344 10.1089 18.9631 11.0767 18.9631C11.6203 18.9631 12.1141 18.8935 12.5582 18.7543C13.009 18.6151 13.4034 18.4129 13.7415 18.1477C14.0862 17.8759 14.3679 17.5478 14.5866 17.1634C14.812 16.7723 14.9678 16.3314 15.054 15.8409L20.0256 15.8707C19.9394 16.7723 19.6776 17.6605 19.2401 18.5355C18.8092 19.4105 18.2159 20.2093 17.4602 20.9318C16.7045 21.6477 15.7831 22.2178 14.696 22.642C13.6155 23.0663 12.3759 23.2784 10.9773 23.2784C9.13447 23.2784 7.4839 22.8741 6.02557 22.0653C4.57386 21.25 3.42708 20.0634 2.58523 18.5057C1.74337 16.9479 1.32244 15.0521 1.32244 12.8182C1.32244 10.5777 1.75 8.6785 2.60511 7.12074C3.46023 5.56297 4.61695 4.37973 6.07528 3.57102C7.53362 2.76231 9.16761 2.35795 10.9773 2.35795C12.2102 2.35795 13.3504 2.5303 14.3977 2.875C15.4451 3.21307 16.3665 3.71023 17.1619 4.36648C17.9574 5.0161 18.6037 5.81487 19.1009 6.76278C19.598 7.7107 19.9062 8.79451 20.0256 10.0142ZM22.842 23V7.72727H27.565V10.5114H27.7241C28.0025 9.50379 28.4566 8.75473 29.0863 8.2642C29.716 7.76705 30.4485 7.51847 31.2837 7.51847C31.5091 7.51847 31.7411 7.53504 31.9798 7.56818C32.2184 7.5947 32.4405 7.63778 32.646 7.69744V11.9233C32.4139 11.8437 32.109 11.7808 31.7312 11.7344C31.36 11.688 31.0285 11.6648 30.7369 11.6648C30.1602 11.6648 29.6398 11.794 29.1758 12.0526C28.7184 12.3045 28.3571 12.6591 28.092 13.1165C27.8335 13.5672 27.7042 14.0975 27.7042 14.7074V23H22.842ZM38.065 28.7273C37.4817 28.7273 36.9315 28.6809 36.4144 28.5881C35.8974 28.5019 35.4532 28.3859 35.082 28.2401L36.1559 24.7102C36.6332 24.8693 37.064 24.9621 37.4485 24.9886C37.8396 25.0152 38.1744 24.9522 38.4528 24.7997C38.7378 24.6539 38.9566 24.392 39.109 24.0142L39.2979 23.5568L33.869 7.72727H38.9599L41.7738 18.625H41.9329L44.7866 7.72727H49.9073L44.1502 24.4616C43.8718 25.2969 43.4774 26.0327 42.967 26.669C42.4632 27.312 41.8103 27.8158 41.0082 28.1804C40.2127 28.545 39.2317 28.7273 38.065 28.7273ZM51.7717 28.7273V7.72727H56.5842V10.3423H56.7333C56.9322 9.87831 57.2139 9.43087 57.5785 9C57.9497 8.56913 58.4203 8.2178 58.9904 7.94602C59.5671 7.66761 60.2565 7.52841 61.0586 7.52841C62.1192 7.52841 63.1102 7.80682 64.0316 8.36364C64.9596 8.92045 65.7087 9.77888 66.2788 10.9389C66.8488 12.099 67.1339 13.5772 67.1339 15.3736C67.1339 17.1037 66.8588 18.5521 66.3086 19.7188C65.765 20.8854 65.0292 21.7604 64.1012 22.3438C63.1798 22.9271 62.1557 23.2188 61.0288 23.2188C60.2598 23.2188 59.5936 23.0928 59.0302 22.8409C58.4667 22.589 57.9928 22.2576 57.6083 21.8466C57.2305 21.4356 56.9388 20.9948 56.7333 20.5241H56.6339V28.7273H51.7717ZM56.5344 15.3636C56.5344 16.1856 56.6438 16.9015 56.8626 17.5114C57.088 18.1212 57.4094 18.5952 57.8271 18.9332C58.2513 19.2647 58.7584 19.4304 59.3484 19.4304C59.945 19.4304 60.4521 19.2647 60.8697 18.9332C61.2873 18.5952 61.6022 18.1212 61.8143 17.5114C62.033 16.9015 62.1424 16.1856 62.1424 15.3636C62.1424 14.5417 62.033 13.8291 61.8143 13.2259C61.6022 12.6226 61.2873 12.1553 60.8697 11.8239C60.4587 11.4924 59.9516 11.3267 59.3484 11.3267C58.7518 11.3267 58.2447 11.4891 57.8271 11.8139C57.4094 12.1387 57.088 12.6027 56.8626 13.206C56.6438 13.8092 56.5344 14.5284 56.5344 15.3636ZM78.3026 7.72727V11.3068H68.6676V7.72727H78.3026ZM70.6861 4.06818H75.5483V18.1974C75.5483 18.4957 75.5947 18.7377 75.6875 18.9233C75.7869 19.1023 75.9295 19.2315 76.1151 19.3111C76.3007 19.384 76.5227 19.4205 76.7812 19.4205C76.9669 19.4205 77.1624 19.4039 77.3679 19.3707C77.58 19.331 77.7391 19.2978 77.8452 19.2713L78.581 22.7812C78.349 22.8475 78.0208 22.9304 77.5966 23.0298C77.179 23.1293 76.6785 23.1922 76.0952 23.2188C74.955 23.2718 73.9773 23.1392 73.1619 22.821C72.3532 22.4962 71.7334 21.9924 71.3026 21.3097C70.8783 20.6269 70.6728 19.7685 70.6861 18.7344V4.06818ZM87.7486 23.2884C86.1444 23.2884 84.7656 22.9602 83.6122 22.304C82.4654 21.6411 81.5805 20.7197 80.9574 19.5398C80.3409 18.3532 80.0327 16.9777 80.0327 15.4134C80.0327 13.8423 80.3409 12.4669 80.9574 11.2869C81.5805 10.1004 82.4654 9.17898 83.6122 8.52273C84.7656 7.85985 86.1444 7.52841 87.7486 7.52841C89.3527 7.52841 90.7282 7.85985 91.875 8.52273C93.0284 9.17898 93.9134 10.1004 94.5298 11.2869C95.1529 12.4669 95.4645 13.8423 95.4645 15.4134C95.4645 16.9777 95.1529 18.3532 94.5298 19.5398C93.9134 20.7197 93.0284 21.6411 91.875 22.304C90.7282 22.9602 89.3527 23.2884 87.7486 23.2884ZM87.7784 19.6193C88.3617 19.6193 88.8556 19.4403 89.2599 19.0824C89.6643 18.7244 89.9725 18.2273 90.1847 17.5909C90.4034 16.9545 90.5128 16.2187 90.5128 15.3835C90.5128 14.535 90.4034 13.7926 90.1847 13.1562C89.9725 12.5199 89.6643 12.0227 89.2599 11.6648C88.8556 11.3068 88.3617 11.1278 87.7784 11.1278C87.1752 11.1278 86.6648 11.3068 86.2472 11.6648C85.8362 12.0227 85.5213 12.5199 85.3026 13.1562C85.0904 13.7926 84.9844 14.535 84.9844 15.3835C84.9844 16.2187 85.0904 16.9545 85.3026 17.5909C85.5213 18.2273 85.8362 18.7244 86.2472 19.0824C86.6648 19.4403 87.1752 19.6193 87.7784 19.6193Z"/>
<path d="M105.482 23H97.9553V2.63636H105.472C107.547 2.63636 109.334 3.04403 110.832 3.85938C112.336 4.66809 113.496 5.83475 114.312 7.35938C115.127 8.87737 115.535 10.6937 115.535 12.8082C115.535 14.9295 115.127 16.7524 114.312 18.277C113.503 19.8016 112.346 20.9716 110.842 21.7869C109.337 22.5956 107.55 23 105.482 23ZM102.877 18.804H105.293C106.433 18.804 107.398 18.6117 108.187 18.2273C108.982 17.8362 109.582 17.2031 109.987 16.3281C110.397 15.4465 110.603 14.2732 110.603 12.8082C110.603 11.3433 110.397 10.1766 109.987 9.30824C109.576 8.43324 108.969 7.8035 108.167 7.41903C107.371 7.02793 106.39 6.83239 105.224 6.83239H102.877V18.804ZM118.408 23V7.72727H123.271V23H118.408ZM120.844 5.94744C120.162 5.94744 119.575 5.72206 119.085 5.27131C118.594 4.81392 118.349 4.26373 118.349 3.62074C118.349 2.98437 118.594 2.44081 119.085 1.99006C119.575 1.53267 120.162 1.30398 120.844 1.30398C121.534 1.30398 122.121 1.53267 122.604 1.99006C123.095 2.44081 123.34 2.98437 123.34 3.62074C123.34 4.26373 123.095 4.81392 122.604 5.27131C122.121 5.72206 121.534 5.94744 120.844 5.94744ZM141.181 7.72727L135.941 23H130.373L125.142 7.72727H130.263L133.077 18.2472H133.236L136.06 7.72727H141.181ZM149.692 23.2884C148.095 23.2884 146.716 22.9735 145.556 22.3438C144.402 21.7074 143.514 20.8026 142.891 19.6293C142.275 18.4493 141.966 17.0473 141.966 15.4233C141.966 13.8456 142.278 12.4669 142.901 11.2869C143.524 10.1004 144.402 9.17898 145.536 8.52273C146.669 7.85985 148.005 7.52841 149.543 7.52841C150.63 7.52841 151.624 7.69744 152.526 8.03551C153.427 8.37358 154.206 8.87405 154.863 9.53693C155.519 10.1998 156.029 11.0185 156.394 11.9929C156.758 12.9607 156.941 14.071 156.941 15.3239V16.5369H143.667V13.7131H152.417C152.41 13.196 152.287 12.7353 152.049 12.331C151.81 11.9266 151.482 11.6117 151.064 11.3864C150.653 11.1544 150.179 11.0384 149.642 11.0384C149.099 11.0384 148.612 11.161 148.181 11.4062C147.75 11.6449 147.408 11.973 147.157 12.3906C146.905 12.8016 146.772 13.2689 146.759 13.7926V16.6662C146.759 17.2893 146.882 17.8362 147.127 18.3068C147.372 18.7708 147.72 19.1321 148.171 19.3906C148.622 19.6491 149.158 19.7784 149.782 19.7784C150.212 19.7784 150.604 19.7187 150.955 19.5994C151.306 19.4801 151.608 19.3045 151.86 19.0724C152.112 18.8404 152.301 18.5554 152.426 18.2173L156.891 18.3466C156.705 19.3475 156.298 20.2192 155.668 20.9616C155.045 21.6974 154.226 22.2708 153.212 22.6818C152.198 23.0862 151.025 23.2884 149.692 23.2884Z"/>
</mask>
<path d="M20.0256 10.0142H15.054C14.9877 9.50379 14.8518 9.04309 14.6463 8.6321C14.4408 8.22112 14.169 7.86979 13.831 7.57812C13.4929 7.28646 13.0919 7.06439 12.6278 6.91193C12.1705 6.75284 11.6634 6.67329 11.1065 6.67329C10.1188 6.67329 9.26705 6.91525 8.55114 7.39915C7.84186 7.88305 7.29498 8.58239 6.91051 9.49716C6.53267 10.4119 6.34375 11.5189 6.34375 12.8182C6.34375 14.1705 6.53598 15.304 6.92045 16.2188C7.31155 17.1269 7.85843 17.813 8.56108 18.277C9.27036 18.7344 10.1089 18.9631 11.0767 18.9631C11.6203 18.9631 12.1141 18.8935 12.5582 18.7543C13.009 18.6151 13.4034 18.4129 13.7415 18.1477C14.0862 17.8759 14.3679 17.5478 14.5866 17.1634C14.812 16.7723 14.9678 16.3314 15.054 15.8409L20.0256 15.8707C19.9394 16.7723 19.6776 17.6605 19.2401 18.5355C18.8092 19.4105 18.2159 20.2093 17.4602 20.9318C16.7045 21.6477 15.7831 22.2178 14.696 22.642C13.6155 23.0663 12.3759 23.2784 10.9773 23.2784C9.13447 23.2784 7.4839 22.8741 6.02557 22.0653C4.57386 21.25 3.42708 20.0634 2.58523 18.5057C1.74337 16.9479 1.32244 15.0521 1.32244 12.8182C1.32244 10.5777 1.75 8.6785 2.60511 7.12074C3.46023 5.56297 4.61695 4.37973 6.07528 3.57102C7.53362 2.76231 9.16761 2.35795 10.9773 2.35795C12.2102 2.35795 13.3504 2.5303 14.3977 2.875C15.4451 3.21307 16.3665 3.71023 17.1619 4.36648C17.9574 5.0161 18.6037 5.81487 19.1009 6.76278C19.598 7.7107 19.9062 8.79451 20.0256 10.0142ZM22.842 23V7.72727H27.565V10.5114H27.7241C28.0025 9.50379 28.4566 8.75473 29.0863 8.2642C29.716 7.76705 30.4485 7.51847 31.2837 7.51847C31.5091 7.51847 31.7411 7.53504 31.9798 7.56818C32.2184 7.5947 32.4405 7.63778 32.646 7.69744V11.9233C32.4139 11.8437 32.109 11.7808 31.7312 11.7344C31.36 11.688 31.0285 11.6648 30.7369 11.6648C30.1602 11.6648 29.6398 11.794 29.1758 12.0526C28.7184 12.3045 28.3571 12.6591 28.092 13.1165C27.8335 13.5672 27.7042 14.0975 27.7042 14.7074V23H22.842ZM38.065 28.7273C37.4817 28.7273 36.9315 28.6809 36.4144 28.5881C35.8974 28.5019 35.4532 28.3859 35.082 28.2401L36.1559 24.7102C36.6332 24.8693 37.064 24.9621 37.4485 24.9886C37.8396 25.0152 38.1744 24.9522 38.4528 24.7997C38.7378 24.6539 38.9566 24.392 39.109 24.0142L39.2979 23.5568L33.869 7.72727H38.9599L41.7738 18.625H41.9329L44.7866 7.72727H49.9073L44.1502 24.4616C43.8718 25.2969 43.4774 26.0327 42.967 26.669C42.4632 27.312 41.8103 27.8158 41.0082 28.1804C40.2127 28.545 39.2317 28.7273 38.065 28.7273ZM51.7717 28.7273V7.72727H56.5842V10.3423H56.7333C56.9322 9.87831 57.2139 9.43087 57.5785 9C57.9497 8.56913 58.4203 8.2178 58.9904 7.94602C59.5671 7.66761 60.2565 7.52841 61.0586 7.52841C62.1192 7.52841 63.1102 7.80682 64.0316 8.36364C64.9596 8.92045 65.7087 9.77888 66.2788 10.9389C66.8488 12.099 67.1339 13.5772 67.1339 15.3736C67.1339 17.1037 66.8588 18.5521 66.3086 19.7188C65.765 20.8854 65.0292 21.7604 64.1012 22.3438C63.1798 22.9271 62.1557 23.2188 61.0288 23.2188C60.2598 23.2188 59.5936 23.0928 59.0302 22.8409C58.4667 22.589 57.9928 22.2576 57.6083 21.8466C57.2305 21.4356 56.9388 20.9948 56.7333 20.5241H56.6339V28.7273H51.7717ZM56.5344 15.3636C56.5344 16.1856 56.6438 16.9015 56.8626 17.5114C57.088 18.1212 57.4094 18.5952 57.8271 18.9332C58.2513 19.2647 58.7584 19.4304 59.3484 19.4304C59.945 19.4304 60.4521 19.2647 60.8697 18.9332C61.2873 18.5952 61.6022 18.1212 61.8143 17.5114C62.033 16.9015 62.1424 16.1856 62.1424 15.3636C62.1424 14.5417 62.033 13.8291 61.8143 13.2259C61.6022 12.6226 61.2873 12.1553 60.8697 11.8239C60.4587 11.4924 59.9516 11.3267 59.3484 11.3267C58.7518 11.3267 58.2447 11.4891 57.8271 11.8139C57.4094 12.1387 57.088 12.6027 56.8626 13.206C56.6438 13.8092 56.5344 14.5284 56.5344 15.3636ZM78.3026 7.72727V11.3068H68.6676V7.72727H78.3026ZM70.6861 4.06818H75.5483V18.1974C75.5483 18.4957 75.5947 18.7377 75.6875 18.9233C75.7869 19.1023 75.9295 19.2315 76.1151 19.3111C76.3007 19.384 76.5227 19.4205 76.7812 19.4205C76.9669 19.4205 77.1624 19.4039 77.3679 19.3707C77.58 19.331 77.7391 19.2978 77.8452 19.2713L78.581 22.7812C78.349 22.8475 78.0208 22.9304 77.5966 23.0298C77.179 23.1293 76.6785 23.1922 76.0952 23.2188C74.955 23.2718 73.9773 23.1392 73.1619 22.821C72.3532 22.4962 71.7334 21.9924 71.3026 21.3097C70.8783 20.6269 70.6728 19.7685 70.6861 18.7344V4.06818ZM87.7486 23.2884C86.1444 23.2884 84.7656 22.9602 83.6122 22.304C82.4654 21.6411 81.5805 20.7197 80.9574 19.5398C80.3409 18.3532 80.0327 16.9777 80.0327 15.4134C80.0327 13.8423 80.3409 12.4669 80.9574 11.2869C81.5805 10.1004 82.4654 9.17898 83.6122 8.52273C84.7656 7.85985 86.1444 7.52841 87.7486 7.52841C89.3527 7.52841 90.7282 7.85985 91.875 8.52273C93.0284 9.17898 93.9134 10.1004 94.5298 11.2869C95.1529 12.4669 95.4645 13.8423 95.4645 15.4134C95.4645 16.9777 95.1529 18.3532 94.5298 19.5398C93.9134 20.7197 93.0284 21.6411 91.875 22.304C90.7282 22.9602 89.3527 23.2884 87.7486 23.2884ZM87.7784 19.6193C88.3617 19.6193 88.8556 19.4403 89.2599 19.0824C89.6643 18.7244 89.9725 18.2273 90.1847 17.5909C90.4034 16.9545 90.5128 16.2187 90.5128 15.3835C90.5128 14.535 90.4034 13.7926 90.1847 13.1562C89.9725 12.5199 89.6643 12.0227 89.2599 11.6648C88.8556 11.3068 88.3617 11.1278 87.7784 11.1278C87.1752 11.1278 86.6648 11.3068 86.2472 11.6648C85.8362 12.0227 85.5213 12.5199 85.3026 13.1562C85.0904 13.7926 84.9844 14.535 84.9844 15.3835C84.9844 16.2187 85.0904 16.9545 85.3026 17.5909C85.5213 18.2273 85.8362 18.7244 86.2472 19.0824C86.6648 19.4403 87.1752 19.6193 87.7784 19.6193Z" fill="#00FFA0"/>
<path d="M105.482 23H97.9553V2.63636H105.472C107.547 2.63636 109.334 3.04403 110.832 3.85938C112.336 4.66809 113.496 5.83475 114.312 7.35938C115.127 8.87737 115.535 10.6937 115.535 12.8082C115.535 14.9295 115.127 16.7524 114.312 18.277C113.503 19.8016 112.346 20.9716 110.842 21.7869C109.337 22.5956 107.55 23 105.482 23ZM102.877 18.804H105.293C106.433 18.804 107.398 18.6117 108.187 18.2273C108.982 17.8362 109.582 17.2031 109.987 16.3281C110.397 15.4465 110.603 14.2732 110.603 12.8082C110.603 11.3433 110.397 10.1766 109.987 9.30824C109.576 8.43324 108.969 7.8035 108.167 7.41903C107.371 7.02793 106.39 6.83239 105.224 6.83239H102.877V18.804ZM118.408 23V7.72727H123.271V23H118.408ZM120.844 5.94744C120.162 5.94744 119.575 5.72206 119.085 5.27131C118.594 4.81392 118.349 4.26373 118.349 3.62074C118.349 2.98437 118.594 2.44081 119.085 1.99006C119.575 1.53267 120.162 1.30398 120.844 1.30398C121.534 1.30398 122.121 1.53267 122.604 1.99006C123.095 2.44081 123.34 2.98437 123.34 3.62074C123.34 4.26373 123.095 4.81392 122.604 5.27131C122.121 5.72206 121.534 5.94744 120.844 5.94744ZM141.181 7.72727L135.941 23H130.373L125.142 7.72727H130.263L133.077 18.2472H133.236L136.06 7.72727H141.181ZM149.692 23.2884C148.095 23.2884 146.716 22.9735 145.556 22.3438C144.402 21.7074 143.514 20.8026 142.891 19.6293C142.275 18.4493 141.966 17.0473 141.966 15.4233C141.966 13.8456 142.278 12.4669 142.901 11.2869C143.524 10.1004 144.402 9.17898 145.536 8.52273C146.669 7.85985 148.005 7.52841 149.543 7.52841C150.63 7.52841 151.624 7.69744 152.526 8.03551C153.427 8.37358 154.206 8.87405 154.863 9.53693C155.519 10.1998 156.029 11.0185 156.394 11.9929C156.758 12.9607 156.941 14.071 156.941 15.3239V16.5369H143.667V13.7131H152.417C152.41 13.196 152.287 12.7353 152.049 12.331C151.81 11.9266 151.482 11.6117 151.064 11.3864C150.653 11.1544 150.179 11.0384 149.642 11.0384C149.099 11.0384 148.612 11.161 148.181 11.4062C147.75 11.6449 147.408 11.973 147.157 12.3906C146.905 12.8016 146.772 13.2689 146.759 13.7926V16.6662C146.759 17.2893 146.882 17.8362 147.127 18.3068C147.372 18.7708 147.72 19.1321 148.171 19.3906C148.622 19.6491 149.158 19.7784 149.782 19.7784C150.212 19.7784 150.604 19.7187 150.955 19.5994C151.306 19.4801 151.608 19.3045 151.86 19.0724C152.112 18.8404 152.301 18.5554 152.426 18.2173L156.891 18.3466C156.705 19.3475 156.298 20.2192 155.668 20.9616C155.045 21.6974 154.226 22.2708 153.212 22.6818C152.198 23.0862 151.025 23.2884 149.692 23.2884Z" fill="white"/>
<path d="M20.0256 10.0142V11.0142H21.1282L21.0208 9.91684L20.0256 10.0142ZM15.054 10.0142L14.0623 10.143L14.1754 11.0142H15.054V10.0142ZM14.6463 8.6321L13.7519 9.07931L13.7519 9.07932L14.6463 8.6321ZM13.831 7.57812L14.4842 6.82097L14.4842 6.82097L13.831 7.57812ZM12.6278 6.91193L12.2993 7.85643L12.3075 7.85927L12.3157 7.86196L12.6278 6.91193ZM8.55114 7.39915L7.99113 6.57065L7.98756 6.57308L8.55114 7.39915ZM6.91051 9.49716L5.98861 9.10969L5.98625 9.1154L6.91051 9.49716ZM6.92045 16.2188L5.99853 16.6062L6.002 16.6143L6.92045 16.2188ZM8.56108 18.277L8.00999 19.1115L8.01913 19.1174L8.56108 18.277ZM12.5582 18.7543L12.2632 17.7988L12.2592 17.8L12.5582 18.7543ZM13.7415 18.1477L14.3586 18.9346L14.3606 18.933L13.7415 18.1477ZM14.5866 17.1634L13.7202 16.664L13.7175 16.6688L14.5866 17.1634ZM15.054 15.8409L15.06 14.8409L14.2152 14.8359L14.0691 15.6679L15.054 15.8409ZM20.0256 15.8707L21.021 15.9659L21.1251 14.8773L20.0316 14.8708L20.0256 15.8707ZM19.2401 18.5355L18.3456 18.0883L18.3429 18.0937L19.2401 18.5355ZM17.4602 20.9318L18.148 21.6578L18.1513 21.6546L17.4602 20.9318ZM14.696 22.642L14.3325 21.7105L14.3305 21.7112L14.696 22.642ZM6.02557 22.0653L5.53587 22.9372L5.5406 22.9399L6.02557 22.0653ZM2.58523 18.5057L3.46498 18.0302L2.58523 18.5057ZM2.60511 7.12074L1.7285 6.63954L1.7285 6.63954L2.60511 7.12074ZM14.3977 2.875L14.0851 3.82489L14.0905 3.82665L14.3977 2.875ZM17.1619 4.36648L16.5255 5.13786L16.5294 5.14101L17.1619 4.36648ZM20.0256 9.0142H15.054V11.0142H20.0256V9.0142ZM16.0456 9.88542C15.9667 9.27736 15.8018 8.70708 15.5407 8.18489L13.7519 9.07932C13.9018 9.3791 14.0087 9.73021 14.0623 10.143L16.0456 9.88542ZM15.5407 8.18489C15.2779 7.65918 14.9253 7.20152 14.4842 6.82097L13.1777 8.33528C13.4128 8.53806 13.6037 8.78305 13.7519 9.07931L15.5407 8.18489ZM14.4842 6.82097C14.0373 6.43537 13.5175 6.15164 12.94 5.9619L12.3157 7.86196C12.6662 7.97714 12.9485 8.13755 13.1777 8.33528L14.4842 6.82097ZM12.9564 5.96743C12.3788 5.76655 11.7587 5.67329 11.1065 5.67329V7.67329C11.568 7.67329 11.9621 7.73913 12.2993 7.85643L12.9564 5.96743ZM11.1065 5.67329C9.94869 5.67329 8.89523 5.95955 7.99114 6.57065L9.11114 8.22764C9.63886 7.87094 10.289 7.67329 11.1065 7.67329V5.67329ZM7.98756 6.57308C7.09548 7.1817 6.43587 8.04556 5.98862 9.1097L7.8324 9.88462C8.15409 9.11921 8.58824 8.5844 9.11471 8.22521L7.98756 6.57308ZM5.98625 9.1154C5.54543 10.1826 5.34375 11.4269 5.34375 12.8182H7.34375C7.34375 11.611 7.51991 10.6412 7.83477 9.87892L5.98625 9.1154ZM5.34375 12.8182C5.34375 14.2582 5.54749 15.5329 5.99857 16.6062L7.84234 15.8313C7.52448 15.075 7.34375 14.0827 7.34375 12.8182H5.34375ZM6.002 16.6143C6.45648 17.6696 7.11808 18.5224 8.01002 19.1115L9.11214 17.4425C8.59878 17.1035 8.16662 16.5842 7.8389 15.8232L6.002 16.6143ZM8.01913 19.1174C8.91267 19.6936 9.94559 19.9631 11.0767 19.9631V17.9631C10.2722 17.9631 9.62805 17.7751 9.10303 17.4366L8.01913 19.1174ZM11.0767 19.9631C11.7051 19.9631 12.3017 19.8826 12.8573 19.7085L12.2592 17.8C11.9265 17.9043 11.5354 17.9631 11.0767 17.9631V19.9631ZM12.8533 19.7097C13.4094 19.538 13.9154 19.2822 14.3586 18.9346L13.1243 17.3609C12.8914 17.5436 12.6086 17.6921 12.2632 17.7988L12.8533 19.7097ZM14.3606 18.933C14.8074 18.5807 15.1738 18.1536 15.4558 17.6579L13.7175 16.6688C13.562 16.9421 13.3649 17.1712 13.1223 17.3625L14.3606 18.933ZM15.4531 17.6626C15.7424 17.1606 15.9346 16.6075 16.0389 16.0139L14.0691 15.6679C14.001 16.0554 13.8817 16.3839 13.7202 16.6641L15.4531 17.6626ZM15.048 16.8409L20.0196 16.8707L20.0316 14.8708L15.06 14.8409L15.048 16.8409ZM19.0301 15.7756C18.9566 16.545 18.7325 17.3145 18.3456 18.0883L20.1345 18.9827C20.6226 18.0065 20.9222 16.9995 21.021 15.9659L19.0301 15.7756ZM18.3429 18.0937C17.9674 18.8564 17.4463 19.5615 16.7691 20.209L18.1513 21.6546C18.9855 20.857 19.651 19.9646 20.1372 18.9773L18.3429 18.0937ZM16.7725 20.2059C16.1213 20.8228 15.3138 21.3275 14.3325 21.7105L15.0596 23.5736C16.2525 23.1081 17.2878 22.4726 18.148 21.6578L16.7725 20.2059ZM14.3305 21.7112C13.3877 22.0814 12.2758 22.2784 10.9773 22.2784V24.2784C12.476 24.2784 13.8434 24.0511 15.0615 23.5729L14.3305 21.7112ZM10.9773 22.2784C9.28592 22.2784 7.80531 21.9088 6.51054 21.1908L5.5406 22.9399C7.16249 23.8393 8.98302 24.2784 10.9773 24.2784V22.2784ZM6.51526 21.1934C5.23906 20.4767 4.22289 19.4327 3.46498 18.0302L1.70548 18.9811C2.63128 20.6942 3.90867 22.0233 5.53587 22.9372L6.51526 21.1934ZM3.46498 18.0302C2.72006 16.6519 2.32244 14.9286 2.32244 12.8182H0.322443C0.322443 15.1755 0.766682 17.244 1.70548 18.9811L3.46498 18.0302ZM2.32244 12.8182C2.32244 10.7028 2.72602 8.97862 3.48172 7.60194L1.7285 6.63954C0.773983 8.37839 0.322443 10.4525 0.322443 12.8182H2.32244ZM3.48172 7.60194C4.25225 6.19827 5.27793 5.15666 6.56025 4.44555L5.59032 2.69649C3.95597 3.60281 2.66821 4.92768 1.7285 6.63954L3.48172 7.60194ZM6.56025 4.44555C7.85772 3.72605 9.32244 3.35795 10.9773 3.35795V1.35795C9.01279 1.35795 7.20952 1.79857 5.59032 2.69649L6.56025 4.44555ZM10.9773 3.35795C12.1164 3.35795 13.1498 3.51706 14.0851 3.82488L14.7103 1.92512C13.551 1.54355 12.304 1.35795 10.9773 1.35795V3.35795ZM14.0905 3.82665C15.0259 4.12858 15.8339 4.56721 16.5255 5.13785L17.7983 3.5951C16.8991 2.85324 15.8642 2.29756 14.7049 1.92335L14.0905 3.82665ZM16.5294 5.14101C17.2161 5.70179 17.778 6.39355 18.2153 7.22725L19.9864 6.29831C19.4294 5.23619 18.6987 4.33041 17.7945 3.59194L16.5294 5.14101ZM18.2153 7.22725C18.6445 8.04568 18.9217 9.00173 19.0303 10.1116L21.0208 9.91684C20.8908 8.58729 20.5515 7.37572 19.9864 6.29831L18.2153 7.22725ZM22.842 23H21.842V24H22.842V23ZM22.842 7.72727V6.72727H21.842V7.72727H22.842ZM27.565 7.72727H28.565V6.72727H27.565V7.72727ZM27.565 10.5114H26.565V11.5114H27.565V10.5114ZM27.7241 10.5114V11.5114H28.4852L28.688 10.7777L27.7241 10.5114ZM29.0863 8.2642L29.7008 9.05313L29.7059 9.04909L29.0863 8.2642ZM31.9798 7.56818L31.8422 8.55867L31.8557 8.56056L31.8693 8.56207L31.9798 7.56818ZM32.646 7.69744H33.646V6.94648L32.9248 6.7371L32.646 7.69744ZM32.646 11.9233L32.3216 12.8692L33.646 13.3233V11.9233H32.646ZM31.7312 11.7344L31.6071 12.7267L31.6093 12.7269L31.7312 11.7344ZM29.1758 12.0526L29.6582 12.9285L29.6625 12.9261L29.1758 12.0526ZM28.092 13.1165L27.2268 12.6149L27.2245 12.619L28.092 13.1165ZM27.7042 23V24H28.7042V23H27.7042ZM23.842 23V7.72727H21.842V23H23.842ZM22.842 8.72727H27.565V6.72727H22.842V8.72727ZM26.565 7.72727V10.5114H28.565V7.72727H26.565ZM27.565 11.5114H27.7241V9.51136H27.565V11.5114ZM28.688 10.7777C28.9268 9.9133 29.2865 9.37583 29.7008 9.05311L28.4718 7.4753C27.6266 8.13364 27.0782 9.09427 26.7602 10.245L28.688 10.7777ZM29.7059 9.04909C30.1515 8.6973 30.6634 8.51847 31.2837 8.51847V6.51847C30.2336 6.51847 29.2805 6.83679 28.4666 7.47932L29.7059 9.04909ZM31.2837 8.51847C31.4601 8.51847 31.646 8.53143 31.8422 8.55867L32.1173 6.57769C31.8362 6.53865 31.5582 6.51847 31.2837 6.51847V8.51847ZM31.8693 8.56207C32.0578 8.583 32.2229 8.61591 32.3671 8.65779L32.9248 6.7371C32.658 6.65966 32.379 6.60639 32.0902 6.5743L31.8693 8.56207ZM31.646 7.69744V11.9233H33.646V7.69744H31.646ZM32.9703 10.9773C32.647 10.8665 32.2665 10.7926 31.8531 10.7418L31.6093 12.7269C31.9515 12.7689 32.1808 12.821 32.3216 12.8692L32.9703 10.9773ZM31.8552 10.7421C31.4537 10.6919 31.0797 10.6648 30.7369 10.6648V12.6648C30.9774 12.6648 31.2662 12.684 31.6071 12.7267L31.8552 10.7421ZM30.7369 10.6648C30.0048 10.6648 29.3145 10.8305 28.6891 11.179L29.6625 12.9261C29.9651 12.7575 30.3155 12.6648 30.7369 12.6648V10.6648ZM28.6934 11.1766C28.0747 11.5173 27.582 12.0024 27.2268 12.6149L28.9571 13.618C29.1323 13.3158 29.3621 13.0916 29.6582 12.9285L28.6934 11.1766ZM27.2245 12.619C26.8651 13.2456 26.7042 13.9535 26.7042 14.7074H28.7042C28.7042 14.2416 28.8018 13.8889 28.9594 13.614L27.2245 12.619ZM26.7042 14.7074V23H28.7042V14.7074H26.7042ZM27.7042 22H22.842V24H27.7042V22ZM36.4144 28.5881L36.5911 27.6037L36.5788 27.6017L36.4144 28.5881ZM35.082 28.2401L34.1253 27.949L33.8564 28.833L34.7164 29.1708L35.082 28.2401ZM36.1559 24.7102L36.4721 23.7615L35.498 23.4368L35.1992 24.4192L36.1559 24.7102ZM37.4485 24.9886L37.3797 25.9863L37.3809 25.9863L37.4485 24.9886ZM38.4528 24.7997L37.9973 23.9095L37.9848 23.9159L37.9725 23.9226L38.4528 24.7997ZM39.109 24.0142L38.1847 23.6324L38.1817 23.64L39.109 24.0142ZM39.2979 23.5568L40.2222 23.9386L40.3664 23.5896L40.2439 23.2324L39.2979 23.5568ZM33.869 7.72727V6.72727H32.4688L32.923 8.05169L33.869 7.72727ZM38.9599 7.72727L39.9281 7.47726L39.7345 6.72727H38.9599V7.72727ZM41.7738 18.625L40.8056 18.875L40.9992 19.625H41.7738V18.625ZM41.9329 18.625V19.625H42.7047L42.9003 18.8783L41.9329 18.625ZM44.7866 7.72727V6.72727H44.0147L43.8192 7.47395L44.7866 7.72727ZM49.9073 7.72727L50.8529 8.05259L51.3089 6.72727H49.9073V7.72727ZM44.1502 24.4616L43.2046 24.1363L43.2015 24.1454L44.1502 24.4616ZM42.967 26.669L42.1868 26.0433L42.1798 26.0523L42.967 26.669ZM41.0082 28.1804L40.5944 27.27L40.5915 27.2713L41.0082 28.1804ZM38.065 27.7273C37.5345 27.7273 37.0438 27.6851 36.5911 27.6038L36.2378 29.5723C36.8191 29.6767 37.4288 29.7273 38.065 29.7273V27.7273ZM36.5788 27.6017C36.1105 27.5236 35.7374 27.4231 35.4477 27.3093L34.7164 29.1708C35.1691 29.3487 35.6843 29.4802 36.25 29.5745L36.5788 27.6017ZM36.0387 28.5311L37.1126 25.0013L35.1992 24.4192L34.1253 27.949L36.0387 28.5311ZM35.8397 25.6589C36.3741 25.8371 36.8899 25.9525 37.3797 25.9863L37.5173 23.991C37.2381 23.9718 36.8922 23.9016 36.4721 23.7615L35.8397 25.6589ZM37.3809 25.9863C37.9176 26.0227 38.4518 25.9404 38.9331 25.6768L37.9725 23.9226C37.8969 23.964 37.7616 24.0076 37.5162 23.9909L37.3809 25.9863ZM38.9082 25.69C39.4608 25.4073 39.8191 24.9269 40.0364 24.3884L38.1817 23.64C38.094 23.8572 38.0148 23.9005 37.9973 23.9095L38.9082 25.69ZM40.0333 24.396L40.2222 23.9386L38.3737 23.1751L38.1848 23.6324L40.0333 24.396ZM40.2439 23.2324L34.8149 7.40286L32.923 8.05169L38.352 23.8812L40.2439 23.2324ZM33.869 8.72727H38.9599V6.72727H33.869V8.72727ZM37.9916 7.97728L40.8056 18.875L42.742 18.375L39.9281 7.47726L37.9916 7.97728ZM41.7738 19.625H41.9329V17.625H41.7738V19.625ZM42.9003 18.8783L45.754 7.98059L43.8192 7.47395L40.9655 18.3717L42.9003 18.8783ZM44.7866 8.72727H49.9073V6.72727H44.7866V8.72727ZM48.9617 7.40196L43.2046 24.1363L45.0958 24.787L50.8529 8.05259L48.9617 7.40196ZM43.2015 24.1454C42.9576 24.8773 42.6176 25.5064 42.1869 26.0433L43.7471 27.2947C44.3372 26.5589 44.786 25.7165 45.0989 24.7779L43.2015 24.1454ZM42.1798 26.0523C41.7828 26.559 41.262 26.9666 40.5944 27.27L41.422 29.0908C42.3585 28.6651 43.1436 28.065 43.7541 27.2858L42.1798 26.0523ZM40.5915 27.2713C39.9627 27.5595 39.1334 27.7273 38.065 27.7273V29.7273C39.3299 29.7273 40.4627 29.5304 41.4248 29.0895L40.5915 27.2713ZM51.7717 28.7273H50.7717V29.7273H51.7717V28.7273ZM51.7717 7.72727V6.72727H50.7717V7.72727H51.7717ZM56.5842 7.72727H57.5842V6.72727H56.5842V7.72727ZM56.5842 10.3423H55.5842V11.3423H56.5842V10.3423ZM56.7333 10.3423V11.3423H57.3927L57.6525 10.7362L56.7333 10.3423ZM57.5785 9L56.8208 8.34727L56.8151 8.35406L57.5785 9ZM58.9904 7.94602L59.4208 8.8487L59.4252 8.84657L58.9904 7.94602ZM64.0316 8.36364L63.5144 9.2195L63.5171 9.22113L64.0316 8.36364ZM66.2788 10.9389L67.1762 10.4979L67.1762 10.4979L66.2788 10.9389ZM66.3086 19.7188L65.4041 19.2922L65.4021 19.2964L66.3086 19.7188ZM64.1012 22.3438L63.569 21.4971L63.5663 21.4988L64.1012 22.3438ZM59.0302 22.8409L58.6221 23.7538L58.6221 23.7538L59.0302 22.8409ZM57.6083 21.8466L56.8721 22.5234L56.878 22.5297L57.6083 21.8466ZM56.7333 20.5241L57.6498 20.124L57.3879 19.5241H56.7333V20.5241ZM56.6339 20.5241V19.5241H55.6339V20.5241H56.6339ZM56.6339 28.7273V29.7273H57.6339V28.7273H56.6339ZM56.8626 17.5114L55.9212 17.849L55.9246 17.858L56.8626 17.5114ZM57.8271 18.9332L57.1979 19.7105L57.2046 19.7159L57.2114 19.7213L57.8271 18.9332ZM60.8697 18.9332L61.4914 19.7166L61.4989 19.7105L60.8697 18.9332ZM61.8143 17.5114L60.873 17.1737L60.8698 17.1828L61.8143 17.5114ZM61.8143 13.2259L60.8709 13.5576L60.8742 13.5668L61.8143 13.2259ZM60.8697 11.8239L60.2419 12.6023L60.248 12.6072L60.8697 11.8239ZM57.8271 11.8139L57.2131 11.0246L57.2131 11.0246L57.8271 11.8139ZM56.8626 13.206L55.9258 12.856L55.9225 12.8651L56.8626 13.206ZM52.7717 28.7273V7.72727H50.7717V28.7273H52.7717ZM51.7717 8.72727H56.5842V6.72727H51.7717V8.72727ZM55.5842 7.72727V10.3423H57.5842V7.72727H55.5842ZM56.5842 11.3423H56.7333V9.34233H56.5842V11.3423ZM57.6525 10.7362C57.8079 10.3736 58.034 10.0098 58.3419 9.64594L56.8151 8.35406C56.3938 8.85191 56.0565 9.38306 55.8142 9.94841L57.6525 10.7362ZM58.3361 9.65271C58.6072 9.33803 58.962 9.06738 59.4208 8.84869L58.5601 7.04336C57.8786 7.36822 57.2922 7.80023 56.8209 8.34729L58.3361 9.65271ZM59.4252 8.84657C59.8365 8.64801 60.37 8.52841 61.0586 8.52841V6.52841C60.143 6.52841 59.2978 6.68722 58.5557 7.04547L59.4252 8.84657ZM61.0586 8.52841C61.934 8.52841 62.7466 8.75548 63.5144 9.21949L64.5488 7.50778C63.4739 6.85816 62.3044 6.52841 61.0586 6.52841V8.52841ZM63.5171 9.22113C64.2503 9.66105 64.8794 10.3587 65.3813 11.38L67.1762 10.4979C66.538 9.19906 65.669 8.17986 64.5461 7.50614L63.5171 9.22113ZM65.3813 11.38C65.8629 12.36 66.1339 13.674 66.1339 15.3736H68.1339C68.1339 13.4803 67.8348 11.8379 67.1762 10.4979L65.3813 11.38ZM66.1339 15.3736C66.1339 17.004 65.8738 18.2963 65.4041 19.2922L67.2131 20.1453C67.8438 18.8078 68.1339 17.2033 68.1339 15.3736H66.1339ZM65.4021 19.2964C64.9255 20.3195 64.3074 21.033 63.569 21.4971L64.6334 23.1904C65.7511 22.4878 66.6046 21.4513 67.215 20.1411L65.4021 19.2964ZM63.5663 21.4988C62.8104 21.9774 61.9729 22.2188 61.0288 22.2188V24.2188C62.3384 24.2188 63.5492 23.8768 64.6361 23.1887L63.5663 21.4988ZM61.0288 22.2188C60.3669 22.2188 59.8459 22.1102 59.4383 21.928L58.6221 23.7538C59.3414 24.0754 60.1527 24.2188 61.0288 24.2188V22.2188ZM59.4383 21.928C58.9847 21.7252 58.6236 21.4681 58.3386 21.1634L56.878 22.5297C57.362 23.047 57.9488 23.4529 58.6221 23.7538L59.4383 21.928ZM58.3445 21.1698C58.0351 20.8333 57.8072 20.4846 57.6498 20.124L55.8169 20.9243C56.0704 21.505 56.4258 22.0379 56.8721 22.5234L58.3445 21.1698ZM56.7333 19.5241H56.6339V21.5241H56.7333V19.5241ZM55.6339 20.5241V28.7273H57.6339V20.5241H55.6339ZM56.6339 27.7273H51.7717V29.7273H56.6339V27.7273ZM55.5344 15.3636C55.5344 16.2712 55.6548 17.1061 55.9213 17.849L57.8038 17.1737C57.6328 16.6969 57.5344 16.1 57.5344 15.3636H55.5344ZM55.9246 17.858C56.1992 18.6011 56.6137 19.2376 57.1979 19.7105L58.4563 18.156C58.2051 17.9527 57.9767 17.6413 57.8006 17.1647L55.9246 17.858ZM57.2114 19.7213C57.8286 20.2034 58.558 20.4304 59.3484 20.4304V18.4304C58.9588 18.4304 58.674 18.3259 58.4427 18.1452L57.2114 19.7213ZM59.3484 20.4304C60.1423 20.4304 60.8759 20.205 61.4913 19.7165L60.248 18.1499C60.0283 18.3244 59.7476 18.4304 59.3484 18.4304V20.4304ZM61.4989 19.7105C62.0882 19.2334 62.4979 18.59 62.7588 17.8399L60.8698 17.1828C60.7064 17.6524 60.4864 17.9569 60.2405 18.156L61.4989 19.7105ZM62.7556 17.849C63.022 17.1061 63.1424 16.2712 63.1424 15.3636H61.1424C61.1424 16.1 61.044 16.6969 60.873 17.1737L62.7556 17.849ZM63.1424 15.3636C63.1424 14.4565 63.0221 13.6233 62.7544 12.8849L60.8742 13.5668C61.0439 14.0348 61.1424 14.6268 61.1424 15.3636H63.1424ZM62.7576 12.8941C62.4956 12.1488 62.0837 11.5107 61.4913 11.0406L60.248 12.6072C60.4908 12.7999 60.7087 13.0964 60.8709 13.5576L62.7576 12.8941ZM61.4974 11.0455C60.8837 10.5505 60.1457 10.3267 59.3484 10.3267V12.3267C59.7575 12.3267 60.0337 12.4344 60.2419 12.6023L61.4974 11.0455ZM59.3484 10.3267C58.5593 10.3267 57.8285 10.546 57.2131 11.0246L58.441 12.6033C58.6609 12.4323 58.9443 12.3267 59.3484 12.3267V10.3267ZM57.2131 11.0246C56.6204 11.4856 56.2019 12.117 55.9258 12.856L57.7993 13.556C57.974 13.0885 58.1985 12.7919 58.441 12.6033L57.2131 11.0246ZM55.9225 12.8651C55.6542 13.6049 55.5344 14.4454 55.5344 15.3636H57.5344C57.5344 14.6115 57.6335 14.0134 57.8027 13.5469L55.9225 12.8651ZM78.3026 7.72727H79.3026V6.72727H78.3026V7.72727ZM78.3026 11.3068V12.3068H79.3026V11.3068H78.3026ZM68.6676 11.3068H67.6676V12.3068H68.6676V11.3068ZM68.6676 7.72727V6.72727H67.6676V7.72727H68.6676ZM70.6861 4.06818V3.06818H69.6861V4.06818H70.6861ZM75.5483 4.06818H76.5483V3.06818H75.5483V4.06818ZM75.6875 18.9233L74.7931 19.3705L74.8028 19.3899L74.8133 19.4089L75.6875 18.9233ZM76.1151 19.3111L75.7211 20.2302L75.7352 20.2362L75.7494 20.2418L76.1151 19.3111ZM77.3679 19.3707L77.5271 20.358L77.5397 20.356L77.5522 20.3536L77.3679 19.3707ZM77.8452 19.2713L78.8239 19.0661L78.6107 18.0491L77.6026 18.3012L77.8452 19.2713ZM78.581 22.7812L78.8557 23.7428L79.7507 23.4871L79.5597 22.5761L78.581 22.7812ZM77.5966 23.0298L77.3684 22.0562L77.365 22.057L77.5966 23.0298ZM76.0952 23.2188L76.0498 22.2198L76.0487 22.2198L76.0952 23.2188ZM73.1619 22.821L72.7892 23.749L72.7984 23.7526L73.1619 22.821ZM71.3026 21.3097L70.4532 21.8374L70.4569 21.8433L71.3026 21.3097ZM70.6861 18.7344L71.6861 18.7472V18.7344H70.6861ZM77.3026 7.72727V11.3068H79.3026V7.72727H77.3026ZM78.3026 10.3068H68.6676V12.3068H78.3026V10.3068ZM69.6676 11.3068V7.72727H67.6676V11.3068H69.6676ZM68.6676 8.72727H78.3026V6.72727H68.6676V8.72727ZM70.6861 5.06818H75.5483V3.06818H70.6861V5.06818ZM74.5483 4.06818V18.1974H76.5483V4.06818H74.5483ZM74.5483 18.1974C74.5483 18.5878 74.6072 18.9988 74.7931 19.3705L76.5819 18.4761C76.5822 18.4765 76.5483 18.4037 76.5483 18.1974H74.5483ZM74.8133 19.4089C75.0188 19.7787 75.3288 20.0621 75.7211 20.2302L76.509 18.3919C76.513 18.3936 76.5259 18.4003 76.5408 18.4138C76.5555 18.4271 76.5617 18.4378 76.5617 18.4377L74.8133 19.4089ZM75.7494 20.2418C76.0804 20.3719 76.4329 20.4205 76.7812 20.4205V18.4205C76.6126 18.4205 76.521 18.3961 76.4807 18.3803L75.7494 20.2418ZM76.7812 20.4205C77.0261 20.4205 77.2752 20.3986 77.5271 20.358L77.2087 18.3835C77.0496 18.4092 76.9076 18.4205 76.7812 18.4205V20.4205ZM77.5522 20.3536C77.7689 20.313 77.9518 20.2754 78.0877 20.2414L77.6026 18.3012C77.5264 18.3202 77.3911 18.349 77.1836 18.3879L77.5522 20.3536ZM76.8664 19.4765L77.6022 22.9864L79.5597 22.5761L78.8239 19.0661L76.8664 19.4765ZM78.3062 21.8197C78.0972 21.8794 77.7873 21.958 77.3684 22.0562L77.8248 24.0034C78.2544 23.9028 78.6007 23.8156 78.8557 23.7428L78.3062 21.8197ZM77.365 22.057C77.0258 22.1378 76.5911 22.1952 76.0498 22.2198L76.1406 24.2177C76.7659 24.1893 77.3321 24.1207 77.8282 24.0026L77.365 22.057ZM76.0487 22.2198C75.0078 22.2682 74.1771 22.1438 73.5255 21.8894L72.7984 23.7526C73.7774 24.1347 74.9023 24.2753 76.1416 24.2177L76.0487 22.2198ZM73.5346 21.8931C72.9047 21.6401 72.4578 21.2665 72.1482 20.776L70.4569 21.8433C71.0091 22.7184 71.8017 23.3523 72.7892 23.749L73.5346 21.8931ZM72.1519 20.7819C71.8536 20.3017 71.6745 19.6445 71.686 18.7472L69.6862 18.7216C69.6711 19.8925 69.903 20.952 70.4532 21.8374L72.1519 20.7819ZM71.6861 18.7344V4.06818H69.6861V18.7344H71.6861ZM83.6122 22.304L83.1118 23.1698L83.1177 23.1731L83.6122 22.304ZM80.9574 19.5398L80.07 20.0008L80.0731 20.0067L80.9574 19.5398ZM80.9574 11.2869L80.072 10.822L80.0711 10.8239L80.9574 11.2869ZM83.6122 8.52273L84.1089 9.39066L84.1105 9.38974L83.6122 8.52273ZM91.875 8.52273L91.3745 9.38852L91.3805 9.39189L91.875 8.52273ZM94.5298 11.2869L93.6424 11.748L93.6456 11.7539L94.5298 11.2869ZM94.5298 19.5398L93.6445 19.0748L93.6435 19.0767L94.5298 19.5398ZM91.875 22.304L92.3717 23.1719L92.3733 23.171L91.875 22.304ZM89.2599 19.0824L88.5971 18.3336L88.5971 18.3336L89.2599 19.0824ZM90.1847 17.5909L89.2389 17.2658L89.236 17.2747L90.1847 17.5909ZM90.1847 13.1562L89.2359 13.4725L89.239 13.4813L90.1847 13.1562ZM89.2599 11.6648L89.9228 10.916L89.9228 10.916L89.2599 11.6648ZM86.2472 11.6648L85.5963 10.9055L85.5904 10.9107L86.2472 11.6648ZM85.3026 13.1562L84.3568 12.8312L84.3539 12.84L85.3026 13.1562ZM85.3026 17.5909L84.3538 17.9072L84.3569 17.916L85.3026 17.5909ZM86.2472 19.0824L85.5904 19.8365L85.5964 19.8416L86.2472 19.0824ZM87.7486 22.2884C86.2817 22.2884 85.0809 21.9891 84.1067 21.4348L83.1177 23.1731C84.4504 23.9314 86.0071 24.2884 87.7486 24.2884V22.2884ZM84.1127 21.4382C83.1301 20.8702 82.3776 20.0876 81.8417 19.0728L80.0731 20.0067C80.7834 21.3518 81.8008 22.412 83.1118 23.1697L84.1127 21.4382ZM81.8448 19.0787C81.3139 18.057 81.0327 16.8445 81.0327 15.4134H79.0327C79.0327 17.111 79.3679 18.6495 80.07 20.0008L81.8448 19.0787ZM81.0327 15.4134C81.0327 13.9746 81.3143 12.7633 81.8437 11.75L80.0711 10.8239C79.3676 12.1704 79.0327 13.71 79.0327 15.4134H81.0327ZM81.8427 11.7519C82.3786 10.7314 83.1299 9.9509 84.1089 9.39066L83.1155 7.65479C81.801 8.40705 80.7823 9.46941 80.072 10.822L81.8427 11.7519ZM84.1105 9.38974C85.0839 8.83032 86.2833 8.52841 87.7486 8.52841V6.52841C86.0055 6.52841 84.4474 6.88938 83.1139 7.65571L84.1105 9.38974ZM87.7486 8.52841C89.2141 8.52841 90.409 8.83039 91.3746 9.3885L92.3754 7.65696C91.0474 6.88931 89.4914 6.52841 87.7486 6.52841V8.52841ZM91.3805 9.39189C92.365 9.95204 93.1141 10.7311 93.6425 11.748L95.4172 10.8259C94.7126 9.46966 93.6918 8.40591 92.3695 7.65356L91.3805 9.39189ZM93.6456 11.7539C94.1802 12.7664 94.4645 13.9762 94.4645 15.4134H96.4645C96.4645 13.7084 96.1256 12.1673 95.4141 10.82L93.6456 11.7539ZM94.4645 15.4134C94.4645 16.8429 94.1806 18.0539 93.6445 19.0748L95.4152 20.0047C96.1253 18.6525 96.4645 17.1126 96.4645 15.4134H94.4645ZM93.6435 19.0767C93.1152 20.0879 92.3648 20.8691 91.3767 21.437L92.3733 23.171C93.692 22.4131 94.7115 21.3515 95.4161 20.0028L93.6435 19.0767ZM91.3783 21.436C90.4121 21.989 89.2157 22.2884 87.7486 22.2884V24.2884C89.4898 24.2884 91.0444 23.9315 92.3717 23.1719L91.3783 21.436ZM87.7784 20.6193C88.5847 20.6193 89.3203 20.3645 89.9228 19.8311L88.5971 18.3336C88.3909 18.5162 88.1388 18.6193 87.7784 18.6193V20.6193ZM89.9228 19.8311C90.4871 19.3316 90.879 18.6703 91.1333 17.9071L89.236 17.2747C89.0661 17.7842 88.8415 18.1173 88.5971 18.3336L89.9228 19.8311ZM91.1303 17.916C91.3925 17.1533 91.5128 16.3038 91.5128 15.3835H89.5128C89.5128 16.1337 89.4143 16.7558 89.239 17.2658L91.1303 17.916ZM91.5128 15.3835C91.5128 14.452 91.393 13.5954 91.1303 12.8312L89.239 13.4813C89.4138 13.9899 89.5128 14.6181 89.5128 15.3835H91.5128ZM91.1333 12.84C90.879 12.0769 90.4871 11.4156 89.9228 10.916L88.5971 12.4135C88.8415 12.6299 89.0661 12.9629 89.236 13.4725L91.1333 12.84ZM89.9228 10.916C89.3203 10.3826 88.5847 10.1278 87.7784 10.1278V12.1278C88.1388 12.1278 88.3909 12.231 88.5971 12.4135L89.9228 10.916ZM87.7784 10.1278C86.9613 10.1278 86.2132 10.3768 85.5964 10.9055L86.898 12.424C87.1163 12.2368 87.3891 12.1278 87.7784 12.1278V10.1278ZM85.5904 10.9107C85.0194 11.408 84.6194 12.0676 84.3569 12.8312L86.2482 13.4813C86.4233 12.9722 86.6529 12.6375 86.9039 12.4189L85.5904 10.9107ZM84.3539 12.84C84.1001 13.6012 83.9844 14.4547 83.9844 15.3835H85.9844C85.9844 14.6154 86.0807 13.984 86.2512 13.4725L84.3539 12.84ZM83.9844 15.3835C83.9844 16.301 84.1006 17.1473 84.3539 17.9071L86.2512 17.2747C86.0803 16.7617 85.9844 16.1365 85.9844 15.3835H83.9844ZM84.3569 17.916C84.6194 18.6796 85.0194 19.3392 85.5904 19.8365L86.9039 18.3283C86.6529 18.1097 86.4233 17.7749 86.2482 17.2658L84.3569 17.916ZM85.5964 19.8416C86.2132 20.3704 86.9613 20.6193 87.7784 20.6193V18.6193C87.3891 18.6193 87.1163 18.5103 86.898 18.3231L85.5964 19.8416ZM97.9553 23H96.9553V24H97.9553V23ZM97.9553 2.63636V1.63636H96.9553V2.63636H97.9553ZM110.832 3.85938L110.354 4.73773L110.358 4.74022L110.832 3.85938ZM114.312 7.35938L113.43 7.83096L113.431 7.83256L114.312 7.35938ZM114.312 18.277L113.43 17.8054L113.428 17.8084L114.312 18.277ZM110.842 21.7869L111.315 22.6678L111.318 22.6662L110.842 21.7869ZM102.877 18.804H101.877V19.804H102.877V18.804ZM108.187 18.2273L108.625 19.1262L108.628 19.1247L108.187 18.2273ZM109.987 16.3281L109.08 15.9056L109.079 15.9086L109.987 16.3281ZM109.987 9.30824L109.081 9.73338L109.083 9.73603L109.987 9.30824ZM108.167 7.41903L107.726 8.31648L107.735 8.32079L108.167 7.41903ZM102.877 6.83239V5.83239H101.877V6.83239H102.877ZM105.482 22H97.9553V24H105.482V22ZM98.9553 23V2.63636H96.9553V23H98.9553ZM97.9553 3.63636H105.472V1.63636H97.9553V3.63636ZM105.472 3.63636C107.416 3.63636 109.031 4.01775 110.354 4.73772L111.31 2.98103C109.636 2.07032 107.678 1.63636 105.472 1.63636V3.63636ZM110.358 4.74022C111.687 5.45451 112.706 6.47776 113.43 7.83096L115.194 6.88779C114.287 5.19175 112.986 3.88166 111.305 2.97853L110.358 4.74022ZM113.431 7.83256C114.152 9.17558 114.535 10.8217 114.535 12.8082H116.535C116.535 10.5656 116.102 8.57915 115.193 6.88619L113.431 7.83256ZM114.535 12.8082C114.535 14.8018 114.152 16.4552 113.43 17.8054L115.194 18.7486C116.102 17.0495 116.535 15.0571 116.535 12.8082H114.535ZM113.428 17.8084C112.711 19.1606 111.695 20.187 110.365 20.9077L111.318 22.6662C112.997 21.7562 114.295 20.4426 115.195 18.7456L113.428 17.8084ZM110.368 20.9061C109.037 21.6217 107.42 22 105.482 22V24C107.681 24 109.637 23.5696 111.315 22.6678L110.368 20.9061ZM102.877 19.804H105.293V17.804H102.877V19.804ZM105.293 19.804C106.542 19.804 107.665 19.594 108.625 19.1262L107.749 17.3284C107.131 17.6295 106.325 17.804 105.293 17.804V19.804ZM108.628 19.1247C109.648 18.6234 110.403 17.8112 110.894 16.7476L109.079 15.9086C108.762 16.595 108.317 17.049 107.746 17.3299L108.628 19.1247ZM110.893 16.7506C111.389 15.6869 111.603 14.352 111.603 12.8082H109.603C109.603 14.1944 109.406 15.2061 109.08 15.9056L110.893 16.7506ZM111.603 12.8082C111.603 11.2657 111.389 9.9342 110.89 8.88045L109.083 9.73603C109.406 10.419 109.603 11.4208 109.603 12.8082H111.603ZM110.892 8.8831C110.392 7.81887 109.628 7.01026 108.599 6.51728L107.735 8.32079C108.31 8.59675 108.759 9.0476 109.081 9.73337L110.892 8.8831ZM108.608 6.52164C107.639 6.04518 106.497 5.83239 105.224 5.83239V7.83239C106.284 7.83239 107.104 8.01069 107.726 8.31643L108.608 6.52164ZM105.224 5.83239H102.877V7.83239H105.224V5.83239ZM101.877 6.83239V18.804H103.877V6.83239H101.877ZM118.408 23H117.408V24H118.408V23ZM118.408 7.72727V6.72727H117.408V7.72727H118.408ZM123.271 7.72727H124.271V6.72727H123.271V7.72727ZM123.271 23V24H124.271V23H123.271ZM119.085 5.27131L118.403 6.00271L118.408 6.00763L119.085 5.27131ZM119.085 1.99006L119.761 2.7264L119.766 2.72144L119.085 1.99006ZM122.604 1.99006L121.917 2.71687L121.928 2.72638L122.604 1.99006ZM122.604 5.27131L123.286 6.00303L123.286 6.00269L122.604 5.27131ZM119.408 23V7.72727H117.408V23H119.408ZM118.408 8.72727H123.271V6.72727H118.408V8.72727ZM122.271 7.72727V23H124.271V7.72727H122.271ZM123.271 22H118.408V24H123.271V22ZM120.844 4.94744C120.405 4.94744 120.062 4.81156 119.761 4.53498L118.408 6.00763C119.088 6.63257 119.918 6.94744 120.844 6.94744V4.94744ZM119.766 4.53992C119.469 4.26249 119.349 3.97319 119.349 3.62074H117.349C117.349 4.55427 117.719 5.36535 118.403 6.00269L119.766 4.53992ZM119.349 3.62074C119.349 3.27873 119.466 2.99779 119.761 2.72638L118.408 1.25373C117.722 1.88384 117.349 2.69002 117.349 3.62074H119.349ZM119.766 2.72144C120.068 2.4401 120.41 2.30398 120.844 2.30398V0.303976C119.914 0.303976 119.082 0.625243 118.403 1.25867L119.766 2.72144ZM120.844 2.30398C121.288 2.30398 121.626 2.44164 121.917 2.71679L123.291 1.26332C122.615 0.623694 121.779 0.303976 120.844 0.303976V2.30398ZM121.928 2.72638C122.223 2.99779 122.34 3.27873 122.34 3.62074H124.34C124.34 2.69002 123.967 1.88384 123.281 1.25373L121.928 2.72638ZM122.34 3.62074C122.34 3.97319 122.22 4.26249 121.922 4.53992L123.286 6.00269C123.97 5.36535 124.34 4.55427 124.34 3.62074H122.34ZM121.923 4.53959C121.632 4.81002 121.293 4.94744 120.844 4.94744V6.94744C121.775 6.94744 122.609 6.63411 123.286 6.00303L121.923 4.53959ZM141.181 7.72727L142.127 8.0518L142.581 6.72727H141.181V7.72727ZM135.941 23V24H136.655L136.887 23.3245L135.941 23ZM130.373 23L129.426 23.324L129.658 24H130.373V23ZM125.142 7.72727V6.72727H123.743L124.196 8.05125L125.142 7.72727ZM130.263 7.72727L131.229 7.46887L131.031 6.72727H130.263V7.72727ZM133.077 18.2472L132.111 18.5056L132.309 19.2472H133.077V18.2472ZM133.236 18.2472V19.2472H134.003L134.202 18.5064L133.236 18.2472ZM136.06 7.72727V6.72727H135.293L135.094 7.46802L136.06 7.72727ZM140.235 7.40274L134.995 22.6755L136.887 23.3245L142.127 8.0518L140.235 7.40274ZM135.941 22H130.373V24H135.941V22ZM131.319 22.676L126.088 7.40329L124.196 8.05125L129.426 23.324L131.319 22.676ZM125.142 8.72727H130.263V6.72727H125.142V8.72727ZM129.297 7.98567L132.111 18.5056L134.043 17.9888L131.229 7.46887L129.297 7.98567ZM133.077 19.2472H133.236V17.2472H133.077V19.2472ZM134.202 18.5064L137.026 7.98653L135.094 7.46802L132.27 17.9879L134.202 18.5064ZM136.06 8.72727H141.181V6.72727H136.06V8.72727ZM145.556 22.3438L145.073 23.2193L145.079 23.2226L145.556 22.3438ZM142.891 19.6293L142.005 20.0923L142.008 20.0983L142.891 19.6293ZM142.901 11.2869L143.785 11.7539L143.786 11.7519L142.901 11.2869ZM145.536 8.52273L146.037 9.38816L146.041 9.38596L145.536 8.52273ZM152.526 8.03551L152.877 7.09918L152.877 7.09918L152.526 8.03551ZM156.394 11.9929L155.457 12.3433L155.458 12.3454L156.394 11.9929ZM156.941 16.5369V17.5369H157.941V16.5369H156.941ZM143.667 16.5369H142.667V17.5369H143.667V16.5369ZM143.667 13.7131V12.7131H142.667V13.7131H143.667ZM152.417 13.7131V14.7131H153.429L153.416 13.7002L152.417 13.7131ZM151.064 11.3864L150.573 12.2572L150.581 12.2619L150.589 12.2664L151.064 11.3864ZM148.181 11.4062L148.665 12.2811L148.675 12.2753L148.181 11.4062ZM147.157 12.3906L148.009 12.9132L148.013 12.9071L147.157 12.3906ZM146.759 13.7926L145.759 13.7673L145.759 13.78V13.7926H146.759ZM147.127 18.3068L146.24 18.769L146.243 18.7741L147.127 18.3068ZM148.171 19.3906L147.673 20.2581L147.673 20.2581L148.171 19.3906ZM150.955 19.5994L151.276 20.5463L151.276 20.5463L150.955 19.5994ZM151.86 19.0724L152.537 19.808L152.537 19.808L151.86 19.0724ZM152.426 18.2173L152.455 17.2177L151.739 17.197L151.489 17.8682L152.426 18.2173ZM156.891 18.3466L157.874 18.5289L158.087 17.3808L156.92 17.347L156.891 18.3466ZM155.668 20.9616L154.905 20.3148L154.905 20.3154L155.668 20.9616ZM153.212 22.6818L153.582 23.6107L153.588 23.6086L153.212 22.6818ZM149.692 22.2884C148.226 22.2884 147.019 22 146.033 21.4649L145.079 23.2226C146.413 23.9469 147.963 24.2884 149.692 24.2884V22.2884ZM146.039 21.4682C145.057 20.9264 144.307 20.1636 143.774 19.1602L142.008 20.0983C142.721 21.4415 143.748 22.4883 145.073 23.2193L146.039 21.4682ZM143.777 19.1662C143.25 18.1573 142.966 16.9211 142.966 15.4233H140.966C140.966 17.1736 141.299 18.7414 142.005 20.0923L143.777 19.1662ZM142.966 15.4233C142.966 13.9788 143.251 12.7658 143.785 11.7539L142.017 10.82C141.305 12.1679 140.966 13.7125 140.966 15.4233H142.966ZM143.786 11.7519C144.324 10.7283 145.071 9.94755 146.037 9.38815L145.035 7.6573C143.734 8.4104 142.724 9.47246 142.016 10.822L143.786 11.7519ZM146.041 9.38596C146.997 8.82695 148.152 8.52841 149.543 8.52841V6.52841C147.858 6.52841 146.342 6.89275 145.031 7.6595L146.041 9.38596ZM149.543 8.52841C150.526 8.52841 151.399 8.68095 152.175 8.97184L152.877 7.09918C151.85 6.71394 150.735 6.52841 149.543 6.52841V8.52841ZM152.175 8.97184C152.946 9.26087 153.601 9.68359 154.152 10.2405L155.573 8.83339C154.812 8.06451 153.909 7.48629 152.877 7.09918L152.175 8.97184ZM154.152 10.2405C154.698 10.7919 155.136 11.4859 155.457 12.3433L157.33 11.6425C156.922 10.551 156.34 9.60771 155.573 8.83339L154.152 10.2405ZM155.458 12.3454C155.772 13.1795 155.941 14.1667 155.941 15.3239H157.941C157.941 13.9753 157.745 12.7419 157.33 11.6404L155.458 12.3454ZM155.941 15.3239V16.5369H157.941V15.3239H155.941ZM156.941 15.5369H143.667V17.5369H156.941V15.5369ZM144.667 16.5369V13.7131H142.667V16.5369H144.667ZM143.667 14.7131H152.417V12.7131H143.667V14.7131ZM153.416 13.7002C153.408 13.0269 153.246 12.3922 152.91 11.8227L151.187 12.8392C151.329 13.0785 151.412 13.3651 151.417 13.7259L153.416 13.7002ZM152.91 11.8227C152.578 11.2598 152.115 10.8172 151.539 10.5063L150.589 12.2664C150.849 12.4063 151.042 12.5934 151.187 12.8392L152.91 11.8227ZM151.556 10.5155C150.975 10.1878 150.328 10.0384 149.642 10.0384V12.0384C150.031 12.0384 150.331 12.121 150.573 12.2572L151.556 10.5155ZM149.642 10.0384C148.943 10.0384 148.282 10.198 147.686 10.5372L148.675 12.2753C148.941 12.124 149.255 12.0384 149.642 12.0384V10.0384ZM147.696 10.5315C147.114 10.854 146.644 11.305 146.3 11.8741L148.013 12.9071C148.173 12.641 148.386 12.4357 148.665 12.281L147.696 10.5315ZM146.304 11.8681C145.952 12.4418 145.777 13.0835 145.759 13.7673L147.759 13.8179C147.768 13.4543 147.857 13.1614 148.009 12.9132L146.304 11.8681ZM145.759 13.7926V16.6662H147.759V13.7926H145.759ZM145.759 16.6662C145.759 17.4222 145.908 18.1327 146.24 18.769L148.014 17.8447C147.855 17.5396 147.759 17.1564 147.759 16.6662H145.759ZM146.243 18.7741C146.575 19.4036 147.057 19.9044 147.673 20.2581L148.668 18.5232C148.383 18.3598 148.169 18.138 148.011 17.8395L146.243 18.7741ZM147.673 20.2581C148.303 20.6193 149.019 20.7784 149.782 20.7784V18.7784C149.298 18.7784 148.94 18.679 148.668 18.5232L147.673 20.2581ZM149.782 20.7784C150.305 20.7784 150.806 20.706 151.276 20.5463L150.633 18.6526C150.401 18.7315 150.12 18.7784 149.782 18.7784V20.7784ZM151.276 20.5463C151.749 20.3859 152.174 20.1422 152.537 19.808L151.182 18.3369C151.041 18.4667 150.864 18.5743 150.633 18.6526L151.276 20.5463ZM152.537 19.808C152.911 19.4637 153.186 19.0438 153.364 18.5664L151.489 17.8682C151.415 18.067 151.312 18.2172 151.182 18.3369L152.537 19.808ZM152.398 19.2169L156.862 19.3462L156.92 17.347L152.455 17.2177L152.398 19.2169ZM155.908 18.1643C155.752 19.0019 155.417 19.7115 154.905 20.3148L156.431 21.6085C157.178 20.7269 157.658 19.6931 157.874 18.5289L155.908 18.1643ZM154.905 20.3154C154.4 20.9119 153.721 21.3965 152.836 21.755L153.588 23.6086C154.731 23.1451 155.69 22.483 156.431 21.6079L154.905 20.3154ZM152.842 21.7529C151.968 22.1012 150.925 22.2884 149.692 22.2884V24.2884C151.124 24.2884 152.427 24.0711 153.582 23.6107L152.842 21.7529Z" fill="black" mask="url(#path-1-outside-1_4_3)"/>
</svg>
